<svg width="21" height="20" viewBox="0 0 21 20" fill="none" xmlns="http://www.w3.org/2000/svg">
<path fill-rule="evenodd" clip-rule="evenodd" d="M14.0424 15.5774C14.0643 15.3022 14.3053 15.0968 14.5805 15.1188C16.3374 15.2589 17.8674 15.517 18.9715 15.8598C19.5201 16.0301 19.9927 16.23 20.3388 16.4656C20.6661 16.6885 21 17.0278 21 17.5002C21 17.8012 20.8605 18.0513 20.685 18.2419C20.5119 18.4298 20.2808 18.587 20.0253 18.7213C19.5133 18.9903 18.8053 19.2174 17.9724 19.4025C16.2986 19.7744 14.0105 20.0002 11.5 20.0002C8.98946 20.0002 6.70136 19.7744 5.02757 19.4025C4.19474 19.2174 3.48671 18.9903 2.97471 18.7213C2.71923 18.587 2.48807 18.4298 2.31504 18.2419C2.13953 18.0513 2 17.8012 2 17.5002C2 17.0853 2.25999 16.7728 2.53303 16.5591C2.81397 16.3392 3.19448 16.1533 3.63038 15.9938C4.50769 15.6728 5.72698 15.4171 7.14745 15.2455C7.4216 15.2124 7.67069 15.4077 7.70381 15.6819C7.73693 15.956 7.54154 16.2051 7.26739 16.2383C5.88377 16.4054 4.74936 16.6492 3.97398 16.9329C3.58354 17.0758 3.31296 17.2185 3.14939 17.3465C3.04567 17.4277 3.01277 17.4798 3.00296 17.5005C3.00872 17.5121 3.02189 17.5333 3.05066 17.5645C3.1174 17.637 3.23988 17.731 3.43982 17.836C3.83867 18.0456 4.44866 18.2494 5.2445 18.4263C6.82807 18.7782 9.03998 19.0002 11.5 19.0002C13.96 19.0002 16.1719 18.7782 17.7555 18.4263C18.5513 18.2494 19.1613 18.0456 19.5602 17.836C19.7601 17.731 19.8826 17.637 19.9493 17.5645C19.9778 17.5336 19.991 17.5125 19.9969 17.5008C19.9855 17.4766 19.9409 17.4045 19.7761 17.2923C19.5477 17.1368 19.1819 16.9722 18.675 16.8148C17.668 16.5022 16.2184 16.2526 14.501 16.1156C14.2258 16.0936 14.0204 15.8527 14.0424 15.5774ZM2.99931 17.5096L2.99908 17.5106ZM17.1294 4.14645C17.3247 3.95118 17.6413 3.95118 17.8365 4.14645L20.5018 6.81176L20.5035 6.81344C20.5721 6.882 20.6166 6.96551 20.637 7.05348C20.6529 7.1221 20.6542 7.19344 20.6408 7.2625C20.6225 7.35705 20.5767 7.44733 20.5035 7.52055L20.5018 7.52224L17.8365 10.1875C17.6413 10.3828 17.3247 10.3828 17.1294 10.1875C16.9342 9.99228 16.9342 9.6757 17.1294 9.48044L18.9429 7.66699H17.223C14.0623 7.66699 11.5 10.2293 11.5 13.39V16.4331C11.5 16.7093 11.2761 16.9331 11 16.9331C10.7239 16.9331 10.5 16.7093 10.5 16.4331V13.3901C10.5 9.67713 13.51 6.66699 17.223 6.66699H18.9429L17.1294 4.85355C16.9342 4.65829 16.9342 4.34171 17.1294 4.14645Z" fill="#3B3B3B"/>
</svg>
