<svg width="36" height="36" viewBox="0 0 36 36" fill="none" xmlns="http://www.w3.org/2000/svg">
<path fill-rule="evenodd" clip-rule="evenodd" d="M10.9631 12.3649C10.9631 12.1348 11.1497 11.9483 11.3798 11.9483H13.1584C16.3632 11.9483 18.9926 14.4396 18.9926 17.5508V20.681L20.6096 19.1331C20.7758 18.974 21.0396 18.9797 21.1987 19.146C21.3578 19.3122 21.3521 19.576 21.1858 19.7351L18.864 21.9576C18.7029 22.1118 18.4489 22.1118 18.2878 21.9576L15.966 19.7351C15.7997 19.576 15.794 19.3122 15.9531 19.146C16.1122 18.9797 16.376 18.974 16.5422 19.1331L18.1592 20.681V17.5508C18.1592 14.9338 15.9376 12.7816 13.1584 12.7816H11.3798C11.1497 12.7816 10.9631 12.595 10.9631 12.3649ZM15.0933 21.0978C15.1232 21.326 14.9625 21.5352 14.7343 21.5651C13.6102 21.7123 12.6922 21.9233 12.0663 22.1668C11.7513 22.2894 11.534 22.4112 11.4027 22.5202C11.2958 22.609 11.2794 22.6597 11.2772 22.6699C11.2789 22.6774 11.2874 22.7017 11.3253 22.7448C11.3819 22.809 11.4843 22.8908 11.6502 22.9819C11.9817 23.1638 12.4889 23.3409 13.1513 23.4947C14.4694 23.8007 16.3113 23.9939 18.3604 23.9939C20.4094 23.9939 22.2513 23.8007 23.5694 23.4947C24.2318 23.3409 24.739 23.1638 25.0705 22.9819C25.2364 22.8908 25.3388 22.809 25.3954 22.7448C25.4339 22.7011 25.4421 22.6767 25.4436 22.6695C25.4418 22.6611 25.4308 22.6278 25.3712 22.5683C25.29 22.4873 25.1486 22.3897 24.9308 22.2855C24.4969 22.0782 23.8454 21.885 23.0173 21.7284C22.7911 21.6856 22.6425 21.4676 22.6853 21.2415C22.7281 21.0154 22.946 20.8668 23.1721 20.9095C24.0318 21.0722 24.7631 21.2818 25.2901 21.5337C25.5527 21.6591 25.7863 21.8052 25.9599 21.9786C26.1347 22.153 26.277 22.3854 26.277 22.6694C26.277 22.9194 26.1661 23.1307 26.0206 23.2958C25.8773 23.4583 25.6851 23.5952 25.4715 23.7124C25.0439 23.9471 24.4527 24.1451 23.7579 24.3064C22.3616 24.6306 20.4535 24.8272 18.3604 24.8272C16.2673 24.8272 14.3592 24.6306 12.9628 24.3064C12.268 24.1451 11.6769 23.9471 11.2493 23.7124C11.0356 23.5952 10.8434 23.4583 10.7002 23.2958C10.5546 23.1307 10.4437 22.9194 10.4437 22.6694C10.4437 22.3295 10.6454 22.0659 10.8704 21.8791C11.0991 21.6891 11.4091 21.5283 11.7641 21.3902C12.4781 21.1124 13.4699 20.8903 14.6261 20.7388C14.8542 20.7089 15.0634 20.8697 15.0933 21.0978ZM25.4439 22.6717L25.4436 22.6695L25.4439 22.6717ZM25.4436 22.6695L25.4439 22.6673L25.4436 22.6695ZM11.2769 22.6673L11.277 22.669L11.2769 22.6673Z" fill="#1A93DA"/>
</svg>
